<?xml version="1.0" encoding="utf-8"?>
<!-- Generator: Adobe Illustrator 16.0.0, SVG Export Plug-In . SVG Version: 6.00 Build 0)  -->
<!DOCTYPE svg PUBLIC "-//W3C//DTD SVG 1.1//EN" "http://www.w3.org/Graphics/SVG/1.1/DTD/svg11.dtd">
<svg version="1.1" id="Layer_1" xmlns="http://www.w3.org/2000/svg" xmlns:xlink="http://www.w3.org/1999/xlink" x="0px" y="0px"
	 width="536.231px" height="573.914px" viewBox="0 0 536.231 573.914" enable-background="new 0 0 536.231 573.914"
	 xml:space="preserve">
<g>
	<path fill-rule="evenodd" clip-rule="evenodd" fill="none" stroke="#F2F2F2" stroke-width="5" stroke-miterlimit="10" d="
		M428.815,54.892c0-4.604,0.18-8.439-0.039-12.251c-0.434-7.557-3.216-13.678-9.767-18.311c-5.73-4.054-11.855-3.367-18.045-3.413
		c-10.193-0.076-19.282,7-21.191,16.981c-1.039,5.43-1.115,11.044-1.628,16.595c-73.729,0-147.416,0-221.296,0
		c0-2.891,0.015-5.384-0.002-7.876c-0.154-21.866-15.559-29.063-34.145-25c-10.062,2.2-15.974,11.094-15.989,21.553
		c-0.005,3.778-0.001,7.556-0.001,11.721c-11.047,0-21.513,0.152-31.972-0.032c-20.41-0.36-38.05,16.9-38.042,38.265
		c0.046,132.298,0.013,264.596,0.066,396.894c0.002,4.594,0.091,9.305,1.06,13.76c3.516,16.181,16.804,29.1,33.752,29.118
		c130.798,0.145,261.597,0.08,392.396,0.073c1.662,0,3.403,0.221,4.974-0.182c18.426-4.728,29.791-19.368,29.806-37.79
		c0.104-133.964,0.032-267.929,0.081-401.893c0.008-20.923-17.486-38.696-38.075-38.252
		C450.301,55.077,439.837,54.892,428.815,54.892z"/>
	<path fill-rule="evenodd" clip-rule="evenodd" fill="#F2F2F2" d="M428.815,54.892c11.021,0,21.485,0.186,31.94-0.04
		c20.589-0.443,38.083,17.329,38.075,38.252c-0.049,133.964,0.023,267.929-0.081,401.893c-0.015,18.422-11.38,33.063-29.806,37.79
		c-1.57,0.402-3.312,0.182-4.974,0.182c-130.799,0.007-261.597,0.071-392.396-0.073c-16.949-0.019-30.236-12.938-33.752-29.118
		c-0.968-4.455-1.058-9.166-1.06-13.76c-0.053-132.298-0.02-264.596-0.066-396.894C36.69,71.759,54.33,54.499,74.74,54.859
		c10.459,0.185,20.925,0.032,31.972,0.032c0-4.165-0.004-7.943,0.001-11.721c0.015-10.459,5.927-19.353,15.989-21.553
		c18.586-4.064,33.99,3.133,34.145,25c0.018,2.492,0.002,4.985,0.002,7.876c73.881,0,147.567,0,221.296,0
		c0.513-5.551,0.589-11.165,1.628-16.595c1.909-9.981,10.998-17.058,21.191-16.981c6.189,0.046,12.314-0.641,18.045,3.413
		c6.551,4.633,9.333,10.754,9.767,18.311C428.995,46.452,428.815,50.287,428.815,54.892z M106.712,71.033
		c-10.704,0-20.72,0.523-30.656-0.136C64.37,70.122,52.591,81.182,52.782,94.372c0.3,20.656,0.08,41.32,0.08,61.981
		c0,1.755,0,3.511,0,5.524c2.545,0,4.362,0,6.178,0c24.328,0,48.655,0.125,72.981-0.077c7.163-0.06,9.488,3.251,9.645,7.947
		c0.154,4.597-2.313,8.438-9.734,8.363c-24.491-0.246-48.986-0.092-73.48-0.092c-1.762,0-3.523,0-5.59,0c0,2.655,0,4.634,0,6.613
		c0,92.143,0.089,184.287-0.078,276.43c-0.032,17.821,9.701,26.709,26.675,26.727c94.143,0.101,188.285,0.066,282.428-0.023
		c3.37-0.003,6.876-0.651,10.081-1.715c7.689-2.553,11.496-8.728,11.64-18.348c0.25-16.659,0.039-33.324,0.11-49.986
		c0.009-1.923,0.456-3.873,0.908-5.761c3.839-16.021,18.262-24.074,32.953-24.1c15.663-0.027,31.347-0.506,46.979,0.174
		c10.001,0.435,18.274-8.886,18.236-18.23c-0.252-62.15-0.13-124.302-0.131-186.452c0-1.618,0-3.235,0-5.328
		c-2.631,0-4.752,0-6.875,0c-102.807,0-205.614,0-308.421,0c-1.499,0-3.017,0.145-4.495-0.036c-4.097-0.501-6.571-2.875-7.133-6.958
		c-0.822-5.973,2.628-9.144,9.825-9.144c103.474-0.005,206.947-0.003,310.421-0.003c2.104,0,4.207,0,6.663,0
		c0-24.082,0.572-47.564-0.243-70.999c-0.404-11.611-11.727-20.178-22.429-19.963c-20.153,0.404-40.32,0.11-60.482,0.128
		c-1.442,0.001-2.885,0.175-4.675,0.291c0,6.617-0.055,12.919,0.017,19.22c0.058,5.113,3.171,8.52,8.324,9.328
		c5.523,0.866,7.375,3.629,6.649,9.919c-0.387,3.349-4.432,6.563-8.309,6.13c-2.714-0.303-5.509-0.939-7.993-2.044
		c-10.042-4.469-14.897-12.378-14.837-23.357c0.035-6.423,0.006-12.846,0.006-19.192c-85.645,0-170.543,0-255.824,0
		c0,6.604-0.016,12.904,0.004,19.205c0.02,6.072,1.908,8.432,7.79,9.299c5.229,0.771,7.939,4.499,7.215,9.2
		c-0.554,3.595-4.978,7.396-8.86,6.876c-12.914-1.726-22.483-9.522-22.306-23.362C106.786,85.593,106.712,78.624,106.712,71.033z
		 M52.938,496.54c1.345,8.27,4.517,14.684,11.249,17.751c4.898,2.231,10.718,3.395,16.129,3.402
		c123.139,0.183,246.277,0.151,369.416,0.099c4.265-0.001,8.525-0.81,12.795-0.903c12.247-0.269,20.228-11.999,20.175-22.994
		c-0.117-24.327-0.032-48.655-0.047-72.982c-0.001-1.395-0.149-2.788-0.229-4.183c-0.437-0.277-0.873-0.553-1.31-0.83
		c-1.063,1.476-1.946,3.13-3.215,4.401c-24.118,24.189-48.206,48.41-72.486,72.437c-6.726,6.655-14.878,10.31-24.716,10.3
		c-99.645-0.096-199.287-0.089-298.931-0.011C71.851,503.033,61.985,503.436,52.938,496.54z M469.432,404.028
		c-18.149,0-36.703-0.38-55.229,0.177c-7.991,0.24-14.337,7.909-14.362,15.396c-0.063,18.494-0.021,36.988-0.021,54.051
		C422.311,451.157,445.844,427.62,469.432,404.028z M140.795,54.589c-0.747-6.11,2.28-12.899-4.22-16.98
		c-3.343-2.099-7.778-2.007-10.936,0.598c-5.407,4.46-1.725,10.711-2.912,16.383 M412.673,54.755c0-3.642,0.039-6.911-0.009-10.179
		c-0.076-5.115-3.043-8.175-8.141-8.479c-4.371-0.259-9.206,3.205-9.602,7.363c-0.351,3.694-0.073,7.448-0.073,11.294
		C400.98,54.755,406.416,54.755,412.673,54.755z"/>
	<path fill-rule="evenodd" clip-rule="evenodd" fill="none" stroke="#F2F2F2" stroke-width="5" stroke-miterlimit="10" d="
		M52.938,496.54c9.048,6.896,18.914,6.493,28.83,6.486c99.644-0.078,199.287-0.085,298.931,0.011
		c9.838,0.01,17.99-3.645,24.716-10.3c24.28-24.026,48.368-48.247,72.486-72.437c1.269-1.271,2.152-2.926,3.215-4.401
		c0.437,0.277,0.873,0.553,1.31,0.83c0.08,1.395,0.229,2.788,0.229,4.183c0.015,24.327-0.07,48.655,0.047,72.982
		c0.053,10.995-7.928,22.726-20.175,22.994c-4.27,0.094-8.53,0.902-12.795,0.903c-123.139,0.053-246.277,0.084-369.416-0.099
		c-5.411-0.008-11.231-1.171-16.129-3.402C57.455,511.223,54.282,504.809,52.938,496.54z"/>
	<path fill-rule="evenodd" clip-rule="evenodd" fill="none" stroke="#F2F2F2" stroke-width="5" stroke-miterlimit="10" d="
		M469.432,404.028c-23.588,23.592-47.121,47.129-69.612,69.623c0-17.063-0.042-35.557,0.021-54.051
		c0.025-7.486,6.371-15.155,14.362-15.396C432.729,403.648,451.282,404.028,469.432,404.028z"/>
	<path fill-rule="evenodd" clip-rule="evenodd" fill="#F2F2F2" d="M183.703,239.94c0-5.999-0.041-11.997,0.009-17.995
		c0.074-8.819,6.361-15.032,15.275-15.062c11.83-0.04,23.66-0.039,35.49-0.001c9.375,0.03,15.326,6.026,15.352,15.454
		c0.033,11.83,0.043,23.66-0.003,35.49c-0.035,8.865-6.3,15.135-15.164,15.169c-11.997,0.047-23.994,0.054-35.99-0.003
		c-8.043-0.037-14.897-6.973-14.96-15.058C183.665,251.937,183.703,245.938,183.703,239.94z M200.249,223.155
		c0,11.51,0,22.522,0,33.394c11.303,0,22.197,0,33.042,0c0-11.334,0-22.346,0-33.394
		C222.109,223.155,211.334,223.155,200.249,223.155z"/>
	<path fill-rule="evenodd" clip-rule="evenodd" fill="#F2F2F2" d="M318.616,273.007c-5.998,0-11.997,0.049-17.995-0.012
		c-8.532-0.085-14.868-6.383-14.915-14.913c-0.065-11.997-0.051-23.994-0.006-35.99c0.035-9.119,6.026-15.165,15.093-15.206
		c11.997-0.054,23.994-0.057,35.99,0.001c8.801,0.042,15.003,6.378,15.031,15.301c0.038,11.83,0.035,23.661,0.001,35.49
		c-0.023,8.377-6.878,15.269-15.204,15.322C330.613,273.038,324.614,273.007,318.616,273.007z M302.236,223.155
		c0,11.51,0,22.522,0,33.394c11.303,0,22.197,0,33.041,0c0-11.334,0-22.346,0-33.394
		C324.097,223.155,313.321,223.155,302.236,223.155z"/>
	<path fill-rule="evenodd" clip-rule="evenodd" fill="#F2F2F2" d="M148.294,239.749c-0.46,7.739-0.319,15.577-1.571,23.186
		c-1.004,6.107-6.697,9.968-12.89,10.032c-12.651,0.132-25.305,0.137-37.956,0.003c-7.118-0.075-13.992-7.282-14.111-14.926
		c-0.187-11.983-0.18-23.974-0.007-35.958c0.131-9.136,6.555-15.194,15.703-15.208c11.653-0.019,23.307-0.031,34.959,0.003
		c9.387,0.028,15.371,6.007,15.422,15.365c0.032,5.826,0.006,11.653,0.006,17.479C147.998,239.733,148.146,239.741,148.294,239.749z
		 M98.262,223.155c0,11.51,0,22.522,0,33.394c11.303,0,22.197,0,33.042,0c0-11.333,0-22.346,0-33.394
		C120.122,223.155,109.347,223.155,98.262,223.155z"/>
	<path fill-rule="evenodd" clip-rule="evenodd" fill="#F2F2F2" d="M420.242,273.007c-5.827,0-11.653,0.039-17.48-0.009
		c-8.916-0.074-15.041-6.241-15.074-15.223c-0.044-11.819-0.036-23.64-0.003-35.459c0.027-9.422,5.972-15.404,15.35-15.435
		c11.653-0.038,23.307-0.022,34.96-0.005c9.175,0.013,15.629,6.029,15.771,15.139c0.186,11.983,0.206,23.975-0.007,35.957
		c-0.161,9.065-8.568,15.474-15.54,15.101C432.242,272.754,426.234,273.007,420.242,273.007z M404.232,223.164
		c0,11.52,0,22.531,0,33.376c11.313,0,22.207,0,33.023,0c0-11.343,0-22.354,0-33.376
		C426.065,223.164,415.29,223.164,404.232,223.164z"/>
	<path fill-rule="evenodd" clip-rule="evenodd" fill="#F2F2F2" d="M420.742,301.861c5.826,0,11.653,0.016,17.479-0.004
		c10.03-0.032,15.063,6.483,15.446,14.881c0.553,12.128,0.312,24.303,0.081,36.451c-0.155,8.152-7.23,14.776-15.256,14.799
		c-11.82,0.032-23.64,0.036-35.459-0.001c-9.222-0.029-15.324-6.178-15.35-15.451c-0.032-11.653-0.024-23.306-0.003-34.96
		c0.019-9.759,5.892-15.673,15.581-15.711C409.089,301.841,414.915,301.861,420.742,301.861z M404.199,318.12
		c0,11.485,0,22.496,0,33.441c11.278,0,22.172,0,33.09,0c0-11.31,0-22.32,0-33.441C426.132,318.12,415.357,318.12,404.199,318.12z"
		/>
	<path fill-rule="evenodd" clip-rule="evenodd" fill="#F2F2F2" d="M114.766,299.861c6.321,0,12.642-0.033,18.963,0.008
		c7.674,0.051,14.083,6.428,14.11,14.093c0.043,12.143,0.028,24.286,0.006,36.429c-0.016,8.552-6.303,15.375-14.853,15.545
		c-11.806,0.233-23.625,0.295-35.428-0.014c-10.254-0.269-16.004-8.189-15.889-16.448c0.161-11.475,0.005-22.955,0.052-34.432
		c0.037-8.986,6.218-15.167,15.074-15.18C102.789,299.853,108.777,299.861,114.766,299.861z M98.186,316.244
		c0,11.492,0,22.386,0,33.191c11.345,0,22.355,0,33.193,0c0-11.314,0-22.209,0-33.191
		C120.156,316.244,109.264,316.244,98.186,316.244z"/>
	<path fill-rule="evenodd" clip-rule="evenodd" fill="#F2F2F2" d="M216.599,299.861c5.824,0,11.647-0.002,17.471,0
		c10.051,0.004,15.751,5.772,15.764,15.987c0.014,11.481-0.252,22.971,0.098,34.441c0.214,7.009-5.995,15.455-15.004,15.642
		c-12.142,0.251-24.296,0.233-36.438,0.001c-8.076-0.154-14.666-7.114-14.752-15.298c-0.129-12.146-0.135-24.294,0.001-36.438
		c0.094-8.407,6.388-14.317,14.89-14.333C204.618,299.851,210.608,299.861,216.599,299.861z M233.578,316.383
		c-11.484,0-22.495,0-33.441,0c0,11.278,0,22.172,0,33.09c11.308,0,22.319,0,33.441,0
		C233.578,338.317,233.578,327.542,233.578,316.383z"/>
	<path fill-rule="evenodd" clip-rule="evenodd" fill="#F2F2F2" d="M319.257,299.861c5.99,0,11.98-0.017,17.971,0.004
		c8.1,0.026,14.449,6.026,14.554,14.16c0.158,12.311,0.179,24.627-0.007,36.938c-0.123,8.151-6.901,14.871-15.065,14.987
		c-11.978,0.17-23.963,0.193-35.939-0.005c-9.061-0.151-15.339-8.51-15.161-15.485c0.297-11.64,0.063-23.293,0.087-34.94
		c0.02-9.749,5.92-15.653,15.591-15.659C307.276,299.858,313.267,299.861,319.257,299.861z M335.434,316.252
		c-11.322,0-22.215,0-33.265,0c0,11.263,0,22.273,0,33.353c11.232,0,22.125,0,33.265,0
		C335.434,338.465,335.434,327.572,335.434,316.252z"/>
	<path fill-rule="evenodd" clip-rule="evenodd" fill="#F2F2F2" d="M115.671,392.85c6.159,0,12.318-0.012,18.477,0.003
		c6.723,0.015,13.574,6.264,13.653,12.892c0.157,13.148,0.164,26.301-0.005,39.449c-0.083,6.404-6.918,12.772-13.254,12.783
		c-12.817,0.023-25.634,0.027-38.452,0c-7.828-0.018-14.188-5.966-14.318-13.888c-0.205-12.48-0.219-24.971,0.006-37.45
		c0.142-7.906,6.532-13.755,14.418-13.784C102.688,392.831,109.18,392.85,115.671,392.85z M131.46,408.329
		c-11.262,0-22.273,0-33.355,0c0,11.564,0,22.791,0,34.177c11.262,0,22.272,0,33.355,0
		C131.46,430.941,131.46,419.715,131.46,408.329z"/>
	<path fill-rule="evenodd" clip-rule="evenodd" fill="#F2F2F2" d="M217.024,457.984c-6.155,0-12.311,0.011-18.466-0.002
		c-8.272-0.018-14.661-5.777-14.798-13.899c-0.21-12.474-0.216-24.957,0.004-37.43c0.14-7.895,6.533-13.78,14.393-13.796
		c12.311-0.025,24.635,0.341,36.928-0.128c8.381-0.321,14.599,7.027,14.699,14.022c0.179,12.475,0.192,24.957-0.006,37.431
		c-0.111,6.952-6.372,14.378-14.292,13.879C229.354,457.675,223.18,457.984,217.024,457.984z M200.225,408.109
		c0,11.817,0,23.162,0,34.44c11.278,0,22.172,0,33.089,0c0-11.642,0-22.986,0-34.44
		C222.158,408.109,211.382,408.109,200.225,408.109z"/>
	<path fill-rule="evenodd" clip-rule="evenodd" fill="#F2F2F2" d="M302.195,442.699c11.194,0,21.986,0,33.133,0
		c0-11.496,0-22.854,0-34.461c-11.054,0-21.96,0-33.498,0c0,3.199,0.058,6.303-0.014,9.403c-0.119,5.247-3.339,8.452-8.276,8.345
		c-4.69-0.103-7.863-3.258-7.797-8.285c0.065-4.919-0.086-9.983,1.022-14.712c1.654-7.053,6.429-10.128,13.717-10.136
		c12.315-0.013,24.632-0.023,36.948,0.004c7.844,0.018,14.203,5.943,14.336,13.867c0.209,12.479,0.216,24.968-0.004,37.446
		c-0.138,7.901-6.527,13.791-14.392,13.807c-12.316,0.025-24.642-0.272-36.946,0.109c-7.712,0.239-13.208-5.433-14.661-12.532
		c-1.073-5.245,1.443-9.084,6.518-10.504C296.045,433.996,300.481,437.35,302.195,442.699z"/>
	<path fill-rule="evenodd" clip-rule="evenodd" fill="none" stroke="#F2F2F2" stroke-miterlimit="10" d="M200.249,223.155
		c11.085,0,21.86,0,33.042,0c0,11.047,0,22.06,0,33.394c-10.844,0-21.739,0-33.042,0
		C200.249,245.678,200.249,234.666,200.249,223.155z"/>
	<path fill-rule="evenodd" clip-rule="evenodd" fill="none" stroke="#F2F2F2" stroke-width="5" stroke-miterlimit="10" d="
		M302.236,223.155c11.085,0,21.86,0,33.041,0c0,11.047,0,22.06,0,33.394c-10.844,0-21.738,0-33.041,0
		C302.236,245.678,302.236,234.666,302.236,223.155z"/>
	<path fill-rule="evenodd" clip-rule="evenodd" fill="none" stroke="#F2F2F2" stroke-width="5" stroke-miterlimit="10" d="
		M404.232,223.164c11.058,0,21.833,0,33.023,0c0,11.021,0,22.033,0,33.376c-10.816,0-21.711,0-33.023,0
		C404.232,245.695,404.232,234.684,404.232,223.164z"/>
	<path fill-rule="evenodd" clip-rule="evenodd" fill="none" stroke="#F2F2F2" stroke-width="5" stroke-miterlimit="10" d="
		M404.199,318.12c11.158,0,21.933,0,33.09,0c0,11.121,0,22.132,0,33.441c-10.918,0-21.812,0-33.09,0
		C404.199,340.616,404.199,329.605,404.199,318.12z"/>
	<path fill-rule="evenodd" clip-rule="evenodd" fill="none" stroke="#F2F2F2" stroke-width="5" stroke-miterlimit="10" d="
		M98.186,316.244c11.079,0,21.971,0,33.193,0c0,10.982,0,21.877,0,33.191c-10.838,0-21.849,0-33.193,0
		C98.186,338.629,98.186,327.736,98.186,316.244z"/>
	<path fill-rule="evenodd" clip-rule="evenodd" fill="none" stroke="#F2F2F2" stroke-width="5" stroke-miterlimit="10" d="
		M233.578,316.383c0,11.158,0,21.934,0,33.09c-11.122,0-22.133,0-33.441,0c0-10.918,0-21.812,0-33.09
		C211.083,316.383,222.094,316.383,233.578,316.383z"/>
	<path fill-rule="evenodd" clip-rule="evenodd" fill="none" stroke="#F2F2F2" stroke-width="5" stroke-miterlimit="10" d="
		M335.434,316.252c0,11.319,0,22.213,0,33.353c-11.14,0-22.032,0-33.265,0c0-11.079,0-22.09,0-33.353
		C313.219,316.252,324.111,316.252,335.434,316.252z"/>
	<path fill-rule="evenodd" clip-rule="evenodd" fill="none" stroke="#F2F2F2" stroke-width="5" stroke-miterlimit="10" d="
		M131.46,408.329c0,11.387,0,22.612,0,34.177c-11.083,0-22.093,0-33.355,0c0-11.386,0-22.612,0-34.177
		C109.187,408.329,120.198,408.329,131.46,408.329z"/>
	<path fill-rule="evenodd" clip-rule="evenodd" fill="none" stroke="#F2F2F2" stroke-width="5" stroke-miterlimit="10" d="
		M200.225,408.109c11.157,0,21.933,0,33.089,0c0,11.454,0,22.799,0,34.44c-10.917,0-21.812,0-33.089,0
		C200.225,431.271,200.225,419.926,200.225,408.109z"/>
</g>
</svg>
